<?xml version="1.0" encoding="UTF-8" standalone="no"?>
<!DOCTYPE svg PUBLIC "-//W3C//DTD SVG 1.1//EN" "http://www.w3.org/Graphics/SVG/1.1/DTD/svg11.dtd">
<svg xmlns="http://www.w3.org/2000/svg" version="1.1" viewBox="0.00 0.00 284.00 196.00">
<g stroke-width="2.00" fill="none" stroke-linecap="butt">
<path stroke="#e3e2e1" vector-effect="non-scaling-stroke" d="
  M 273.23 11.77
  A 1.03 1.03 0.0 0 0 272.20 10.74
  L 13.54 10.74
  A 1.03 1.03 0.0 0 0 12.51 11.77
  L 12.51 185.25
  A 1.03 1.03 0.0 0 0 13.54 186.28
  L 272.20 186.28
  A 1.03 1.03 0.0 0 0 273.23 185.25
  L 273.23 11.77"
/>
<path stroke="#e3e2e1" vector-effect="non-scaling-stroke" d="
  M 271.28 12.96
  A 0.27 0.27 0.0 0 0 271.01 12.69
  L 15.23 12.69
  A 0.27 0.27 0.0 0 0 14.96 12.96
  L 14.96 183.96
  A 0.27 0.27 0.0 0 0 15.23 184.23
  L 271.01 184.23
  A 0.27 0.27 0.0 0 0 271.28 183.96
  L 271.28 12.96"
/>
<path stroke="#de8096" vector-effect="non-scaling-stroke" d="
  M 194.20 98.51
  A 51.20 51.20 0.0 0 0 143.00 47.31
  A 51.20 51.20 0.0 0 0 91.80 98.51
  A 51.20 51.20 0.0 0 0 143.00 149.71
  A 51.20 51.20 0.0 0 0 194.20 98.51"
/>
</g>
<path fill="#ffffff" d="
  M 0.00 0.00
  L 284.00 0.00
  L 284.00 196.00
  L 0.00 196.00
  L 0.00 0.00
  Z
  M 273.23 11.77
  A 1.03 1.03 0.0 0 0 272.20 10.74
  L 13.54 10.74
  A 1.03 1.03 0.0 0 0 12.51 11.77
  L 12.51 185.25
  A 1.03 1.03 0.0 0 0 13.54 186.28
  L 272.20 186.28
  A 1.03 1.03 0.0 0 0 273.23 185.25
  L 273.23 11.77
  Z"
/>
<path fill="#c6c4c3" d="
  M 273.23 185.25
  A 1.03 1.03 0.0 0 1 272.20 186.28
  L 13.54 186.28
  A 1.03 1.03 0.0 0 1 12.51 185.25
  L 12.51 11.77
  A 1.03 1.03 0.0 0 1 13.54 10.74
  L 272.20 10.74
  A 1.03 1.03 0.0 0 1 273.23 11.77
  L 273.23 185.25
  Z
  M 271.28 12.96
  A 0.27 0.27 0.0 0 0 271.01 12.69
  L 15.23 12.69
  A 0.27 0.27 0.0 0 0 14.96 12.96
  L 14.96 183.96
  A 0.27 0.27 0.0 0 0 15.23 184.23
  L 271.01 184.23
  A 0.27 0.27 0.0 0 0 271.28 183.96
  L 271.28 12.96
  Z"
/>
<path fill="#ffffff" d="
  M 271.28 183.96
  A 0.27 0.27 0.0 0 1 271.01 184.23
  L 15.23 184.23
  A 0.27 0.27 0.0 0 1 14.96 183.96
  L 14.96 12.96
  A 0.27 0.27 0.0 0 1 15.23 12.69
  L 271.01 12.69
  A 0.27 0.27 0.0 0 1 271.28 12.96
  L 271.28 183.96
  Z
  M 194.20 98.51
  A 51.20 51.20 0.0 0 0 143.00 47.31
  A 51.20 51.20 0.0 0 0 91.80 98.51
  A 51.20 51.20 0.0 0 0 143.00 149.71
  A 51.20 51.20 0.0 0 0 194.20 98.51
  Z"
/>
<circle fill="#bc002d" cx="143.00" cy="98.51" r="51.20"/>
</svg>
